<svg version="1.1" id="Layer_1" xmlns="http://www.w3.org/2000/svg" xmlns:xlink="http://www.w3.org/1999/xlink" x="0px" y="0px"
	 width="100%" viewBox="0 0 1546 1545" enable-background="new 0 0 1546 1545" xml:space="preserve">
<path fill="#231F20" opacity="1.000000" stroke="none" 
	d="
M0.999999,1325.000000 
	C1.000000,957.635742 1.000000,590.271484 1.402097,222.280838 
	C2.202569,216.577103 2.246915,211.441406 3.072433,206.434509 
	C4.834045,195.750061 6.465996,184.997589 9.108895,174.514481 
	C15.220757,150.271637 25.452122,127.696083 39.107651,106.798759 
	C49.024113,91.623405 60.379593,77.522758 74.057739,65.464325 
	C80.700813,59.607906 87.104118,53.426872 94.133675,48.072479 
	C108.678505,36.993740 124.275780,27.611584 141.136444,20.356003 
	C160.940994,11.833600 181.368011,5.676106 202.799423,2.976037 
	C206.884430,2.461383 210.934052,1.665909 215.000000,0.999999 
	C587.364258,1.000000 959.728516,1.000000 1332.714111,1.398571 
	C1341.076172,2.862505 1348.844727,3.758915 1356.552856,5.023940 
	C1382.944946,9.355310 1407.505005,19.013941 1430.485229,32.325314 
	C1453.741821,45.796692 1473.906738,63.215115 1491.335327,83.776009 
	C1502.595703,97.060287 1512.770630,111.152695 1520.148804,126.863304 
	C1526.897339,141.233063 1532.912476,156.069016 1537.754150,171.179138 
	C1542.909912,187.269516 1545.738647,204.011566 1546.040894,221.048660 
	C1546.064331,222.371048 1546.666626,223.683136 1547.000000,225.000000 
	C1547.000000,590.030945 1547.000000,955.061829 1546.596924,1320.720703 
	C1545.130981,1331.757446 1544.411133,1342.215332 1542.934570,1352.565063 
	C1539.768311,1374.757935 1532.478149,1395.763306 1522.532715,1415.723267 
	C1514.741211,1431.360474 1506.000854,1446.636353 1493.908569,1459.448853 
	C1481.963989,1472.104614 1470.135254,1485.060791 1456.850098,1496.210205 
	C1441.391479,1509.183594 1423.761963,1519.179321 1405.010620,1527.061401 
	C1384.808716,1535.553101 1364.067749,1541.777832 1342.204468,1544.036865 
	C1338.112427,1544.459717 1334.067017,1545.334106 1330.000000,1546.000000 
	C959.635742,1546.000000 589.271484,1546.000000 218.285660,1545.601196 
	C209.090195,1544.135620 200.473633,1543.331909 191.951248,1541.948120 
	C173.572510,1538.963867 155.932236,1533.315308 139.093002,1525.480957 
	C118.455002,1515.879150 99.228951,1504.065430 82.098740,1488.798950 
	C67.798523,1476.054443 54.956261,1462.187866 43.871674,1446.579468 
	C32.027927,1429.902100 22.418919,1412.055054 15.479929,1392.860107 
	C9.262922,1375.662354 4.603988,1358.028320 2.965200,1339.705322 
	C2.525069,1334.784302 1.666489,1329.900757 0.999999,1325.000000 
M929.012451,1199.201660 
	C929.094360,1199.167603 929.176270,1199.133545 929.258179,1199.099487 
	C929.149597,1199.052002 929.041077,1199.004639 928.779724,1198.297363 
	C928.039429,1197.207153 927.423706,1196.002075 926.540039,1195.043945 
	C914.856262,1182.376465 903.431824,1169.450684 891.337952,1157.185669 
	C879.572205,1145.253418 866.879395,1134.239258 855.008911,1122.405518 
	C836.629761,1104.083252 818.057678,1085.903687 800.605164,1066.719604 
	C787.339783,1052.138062 775.475281,1036.252563 763.409058,1020.621765 
	C757.514648,1012.986084 752.581604,1004.608215 747.131104,996.442993 
	C753.894714,995.956604 759.835327,995.542053 765.773987,995.099792 
	C779.615540,994.068970 793.527100,993.587341 807.280029,991.851318 
	C826.853271,989.380615 846.474304,986.780945 865.776733,982.793030 
	C893.195251,977.128296 920.662354,971.248169 947.515259,963.423401 
	C973.733398,955.783569 999.287537,945.806274 1024.946045,936.347595 
	C1031.003784,934.114502 1035.272461,933.958618 1040.863281,937.993469 
	C1067.048462,956.891602 1095.395386,972.092773 1125.160156,984.541077 
	C1150.140259,994.988342 1175.948242,1002.966370 1202.620605,1007.789673 
	C1213.282227,1009.717712 1224.103638,1011.483521 1234.895996,1011.793091 
	C1250.141846,1012.230591 1265.489868,1011.959412 1280.678223,1010.648743 
	C1292.896362,1009.594238 1304.942505,1006.547729 1316.705444,1004.449219 
	C1316.926270,1003.016785 1317.092163,1002.658630 1317.010010,1002.371521 
	C1311.037231,981.493896 1305.026367,960.627258 1299.075928,939.743347 
	C1298.252197,936.852295 1296.789429,937.246948 1294.235840,937.659058 
	C1281.900879,939.649780 1269.532593,941.667664 1257.095215,942.703430 
	C1249.411865,943.343384 1241.518555,942.761963 1233.835938,941.799377 
	C1222.671509,940.400513 1211.501343,938.654907 1200.529663,936.186523 
	C1172.787598,929.945190 1146.815063,918.891296 1121.619995,905.922424 
	C1116.939819,903.513306 1112.416748,900.799377 1107.003784,897.768555 
	C1110.034180,896.146667 1112.064941,895.139221 1114.019775,894.001587 
	C1144.932739,876.011963 1174.507568,856.080505 1201.691650,832.774719 
	C1220.598511,816.565125 1238.148804,798.940674 1253.821045,779.578125 
	C1272.080566,757.019104 1287.447632,732.622314 1299.106934,705.944397 
	C1308.018433,685.553833 1314.041260,664.341675 1318.021729,642.502441 
	C1318.523071,639.751099 1317.950928,637.508606 1314.725342,637.026611 
	C1307.432007,635.936646 1300.124634,634.939453 1292.829224,633.862793 
	C1279.901123,631.954834 1266.965942,630.088989 1254.060425,628.037292 
	C1250.907715,627.535950 1249.419312,628.499084 1248.999634,631.609863 
	C1246.536865,649.866882 1240.251343,666.960205 1232.604248,683.551758 
	C1223.972900,702.278992 1212.973022,719.641785 1199.855835,735.518494 
	C1191.251587,745.932861 1181.746704,755.603088 1172.821899,765.412292 
	C1171.049072,764.546448 1170.095093,764.226196 1169.303955,763.673096 
	C1141.860840,744.490845 1116.120728,723.157288 1091.886353,700.136902 
	C1071.692871,680.955139 1052.196533,661.017151 1034.698486,639.221985 
	C1018.393860,618.913330 1002.819397,598.232117 994.330200,572.389526 
	C971.821838,578.056946 949.456482,583.688354 926.461121,589.478394 
	C929.985779,598.398499 933.025024,607.089905 936.794495,615.452148 
	C951.112183,647.214233 972.226196,674.453003 995.076904,700.297241 
	C1009.352234,716.442810 1024.757690,731.624695 1040.151733,746.734070 
	C1051.737427,758.105652 1063.822876,769.015015 1076.213379,779.507202 
	C1088.967773,790.307617 1102.361206,800.353271 1115.541382,810.781677 
	C1114.991577,811.364441 1114.524414,812.130493 1113.843018,812.542053 
	C1098.940918,821.543091 1084.480225,831.424072 1068.986328,839.261230 
	C1045.021606,851.383118 1020.774292,863.172058 995.854797,873.117859 
	C970.946350,883.059082 945.296387,891.353882 919.538635,898.890930 
	C897.642639,905.297913 875.189270,909.869080 852.867615,914.724182 
	C840.677185,917.375549 828.285767,919.205383 815.915222,920.894653 
	C805.346252,922.337891 794.685425,923.140686 784.051147,924.064758 
	C771.736938,925.134888 759.421936,926.360046 747.080261,926.898376 
	C736.178589,927.373840 725.239746,926.997986 714.692444,926.997986 
	C713.984436,929.466187 713.656006,930.611023 713.189758,932.236450 
	C712.617798,931.361877 712.316162,931.016968 712.141235,930.616638 
	C701.063416,905.259583 691.991333,879.233276 685.602051,852.276489 
	C678.870850,823.877014 674.413391,795.201355 675.061890,765.937012 
	C675.380432,751.558960 675.549988,737.100525 677.245667,722.852051 
	C678.883179,709.092957 681.680969,695.364075 685.291687,681.978760 
	C688.707214,669.317139 692.710449,656.562256 698.480713,644.845947 
	C707.452942,626.628418 717.483521,608.844543 728.257874,591.622803 
	C743.880798,566.651245 760.485474,542.290405 776.855652,517.792114 
	C781.019836,511.560181 785.879333,505.792847 790.487366,499.722565 
	C775.458252,486.168579 760.864685,473.007355 746.442932,460.001068 
	C745.924927,460.072906 745.703247,460.034454 745.608643,460.126465 
	C726.481201,478.745331 708.487610,498.370850 692.027222,519.419373 
	C669.542847,548.171265 650.535400,578.949402 636.113098,612.539429 
	C617.919678,654.912354 607.653381,699.055542 606.010620,745.161072 
	C605.619873,756.126099 605.684875,756.469482 594.513855,754.888672 
	C577.520325,752.483948 560.360718,750.569519 543.701904,746.628296 
	C512.260986,739.189819 482.084381,727.841492 453.157623,713.362183 
	C380.285583,676.885986 319.581207,625.571777 269.091461,561.905396 
	C261.164124,551.909241 253.829086,541.443237 246.079468,531.005005 
	C226.942703,543.770447 207.867767,556.494690 188.407150,569.476135 
	C246.162994,653.393250 319.137421,719.721802 408.588837,768.642273 
	C407.092285,770.043823 405.826660,771.305725 404.481934,772.476746 
	C390.127716,784.976624 373.822083,794.208374 356.087677,800.912292 
	C325.249786,812.569519 293.010101,816.630188 260.335114,818.235168 
	C254.269135,818.533142 248.212158,819.014099 242.080765,819.415161 
	C242.882736,842.482666 243.673721,865.234253 244.464325,887.975037 
	C252.827835,887.975037 260.179657,888.487854 267.434662,887.867981 
	C282.447174,886.585266 297.457855,885.058167 312.380493,882.990784 
	C348.356934,878.006836 382.727417,867.841187 414.519409,849.880432 
	C436.861267,837.258606 456.536865,821.359619 472.968384,801.585938 
	C474.929169,799.226257 476.552795,798.663452 479.689514,799.625671 
	C497.777954,805.174561 515.848633,810.866394 534.176331,815.521423 
	C547.163391,818.819946 560.488770,820.963806 573.771240,822.869141 
	C585.647644,824.572815 597.672058,825.244263 609.580322,826.366394 
	C610.769531,832.749512 612.021606,838.995789 613.087830,845.273621 
	C618.299561,875.959595 627.247131,905.650146 638.423523,934.574341 
	C654.346130,975.781555 675.077026,1014.569763 699.908264,1051.162354 
	C715.477478,1074.105835 732.538757,1095.892090 751.134033,1116.392212 
	C763.846008,1130.406250 777.597717,1143.489136 791.085938,1156.783813 
	C804.593079,1170.097168 818.314209,1183.194580 832.052185,1196.270508 
	C833.474365,1197.624023 835.646118,1198.991211 837.474731,1198.997437 
	C867.968018,1199.100830 898.462097,1198.987915 929.012451,1199.201660 
M1324.202759,606.948914 
	C1326.615234,590.572693 1329.027710,574.196533 1331.486938,557.503601 
	C1308.041016,554.116882 1285.296997,550.831543 1262.338745,547.515198 
	C1258.953857,571.022827 1255.678589,593.767761 1252.388306,616.618225 
	C1275.856812,620.004639 1298.488770,623.270325 1321.483521,626.588440 
	C1322.412598,619.927490 1323.256470,613.877747 1324.202759,606.948914 
M983.304749,529.066467 
	C980.862793,517.748657 978.420898,506.430878 975.911316,494.799591 
	C953.046082,499.805023 930.588440,504.721222 907.678040,509.736572 
	C912.680725,532.621582 917.593018,555.093262 922.591125,577.957458 
	C945.462830,572.946899 968.052307,567.998169 990.795837,563.015686 
	C988.298706,551.561035 985.934387,540.715942 983.304749,529.066467 
M1388.466187,983.945923 
	C1390.302612,983.347107 1392.138916,982.748230 1394.262451,982.055786 
	C1387.908325,959.562439 1381.662842,937.453308 1375.323730,915.012512 
	C1352.729492,921.396301 1330.477661,927.683411 1308.089722,934.008911 
	C1314.529175,956.763123 1320.814941,978.974304 1327.114990,1001.236145 
	C1347.791016,995.378784 1367.728516,989.730713 1388.466187,983.945923 
M188.500031,888.004944 
	C203.588394,888.004944 218.676773,888.004944 233.750702,888.004944 
	C233.750702,864.851868 233.750702,842.279297 233.750702,819.532593 
	C210.934357,819.532593 188.372833,819.532593 165.654358,819.532593 
	C165.654358,842.465576 165.654358,865.138855 165.654358,888.004944 
	C173.188644,888.004944 180.344345,888.004944 188.500031,888.004944 
M201.986816,470.230682 
	C184.547974,481.367950 167.109146,492.505219 149.431137,503.795258 
	C161.494339,522.706116 173.258545,541.148254 185.186462,559.847046 
	C204.132919,547.760620 222.673965,535.932800 241.227951,524.096741 
	C229.835983,506.188629 218.776154,488.810577 207.728394,471.424835 
	C206.466385,469.438843 205.344009,467.179321 201.986816,470.230682 
M813.108704,471.612213 
	C821.542175,462.331024 829.975708,453.049835 838.506470,443.661591 
	C823.390198,429.880402 808.798950,416.577820 793.954407,403.044342 
	C780.276978,418.037994 766.886475,432.717072 753.294128,447.617462 
	C768.303406,461.307037 782.979858,474.693054 797.851868,488.257385 
	C802.973572,482.656189 807.791870,477.386841 813.108704,471.612213 
M1398.511841,870.009460 
	C1392.988770,871.630371 1387.465820,873.251221 1381.544312,874.989014 
	C1386.238525,891.618530 1390.809814,907.812622 1395.447388,924.241760 
	C1412.013062,919.549255 1428.188721,914.967285 1444.762329,910.272522 
	C1440.007812,893.430359 1435.432373,877.222839 1430.838013,860.948486 
	C1420.045776,864.007385 1409.680298,866.945312 1398.511841,870.009460 
M160.948456,430.617584 
	C168.416321,442.299896 175.884186,453.982178 183.460403,465.833984 
	C197.144012,457.097565 210.248993,448.730560 223.638397,440.181976 
	C214.910339,426.506927 206.456329,413.261230 197.982681,399.984802 
	C184.352631,408.681458 171.204193,417.070862 157.874344,425.575989 
	C158.865677,427.191467 159.725800,428.593140 160.948456,430.617584 
M122.500359,832.104004 
	C131.916214,832.104004 141.332077,832.104004 150.791183,832.104004 
	C150.791183,815.932495 150.791183,800.353760 150.791183,784.526733 
	C134.863052,784.526733 119.147270,784.526733 103.292175,784.526733 
	C103.292175,800.472046 103.292175,816.174561 103.292175,832.104004 
	C109.557739,832.104004 115.529137,832.104004 122.500359,832.104004 
M969.079102,480.489502 
	C978.761353,478.374512 988.443665,476.259491 998.626038,474.035248 
	C995.310425,458.948792 992.103455,444.356506 988.866760,429.629120 
	C973.768555,432.937286 959.396484,436.086365 944.502502,439.349792 
	C947.768616,454.282288 950.972778,468.931885 954.198059,483.677917 
	C959.219299,482.648529 963.756348,481.718384 969.079102,480.489502 
M838.414185,387.921509 
	C841.962463,384.019653 845.510742,380.117798 849.277710,375.975464 
	C838.740417,366.370514 828.511902,357.047058 818.060730,347.520599 
	C808.397888,358.127380 799.080811,368.354523 789.611511,378.748840 
	C800.171021,388.387787 810.338867,397.669128 820.765686,407.186890 
	C826.551147,400.907990 832.271545,394.699646 838.414185,387.921509 
M1287.092041,488.521545 
	C1275.473511,486.838318 1263.855103,485.155090 1251.783936,483.406281 
	C1249.747803,497.405853 1247.776855,510.957123 1245.747681,524.908752 
	C1259.679565,526.949219 1273.228027,528.933472 1287.316406,530.996826 
	C1289.320557,517.005493 1291.293701,503.230530 1293.289429,489.297821 
	C1290.889404,489.045105 1289.413696,488.889709 1287.092041,488.521545 
z"/>
<path fill="#FFFFFF" opacity="1.000000" stroke="none" 
	d="
M1330.468628,1546.000000 
	C1334.067017,1545.334106 1338.112427,1544.459717 1342.204468,1544.036865 
	C1364.067749,1541.777832 1384.808716,1535.553101 1405.010620,1527.061401 
	C1423.761963,1519.179321 1441.391479,1509.183594 1456.850098,1496.210205 
	C1470.135254,1485.060791 1481.963989,1472.104614 1493.908569,1459.448853 
	C1506.000854,1446.636353 1514.741211,1431.360474 1522.532715,1415.723267 
	C1532.478149,1395.763306 1539.768311,1374.757935 1542.934570,1352.565063 
	C1544.411133,1342.215332 1545.130981,1331.757446 1546.596924,1321.174316 
	C1547.000000,1395.925781 1547.000000,1470.851440 1547.000000,1546.000000 
	C1474.979248,1546.000000 1402.958252,1546.000000 1330.468628,1546.000000 
z"/>
<path fill="#FFFFFF" opacity="1.000000" stroke="none" 
	d="
M0.999999,1325.468628 
	C1.666489,1329.900757 2.525069,1334.784302 2.965200,1339.705322 
	C4.603988,1358.028320 9.262922,1375.662354 15.479929,1392.860107 
	C22.418919,1412.055054 32.027927,1429.902100 43.871674,1446.579468 
	C54.956261,1462.187866 67.798523,1476.054443 82.098740,1488.798950 
	C99.228951,1504.065430 118.455002,1515.879150 139.093002,1525.480957 
	C155.932236,1533.315308 173.572510,1538.963867 191.951248,1541.948120 
	C200.473633,1543.331909 209.090195,1544.135620 217.832031,1545.601196 
	C145.738953,1546.000000 73.477921,1546.000000 1.000000,1546.000000 
	C1.000000,1472.645874 1.000000,1399.291626 0.999999,1325.468628 
z"/>
<path fill="#FFFFFF" opacity="1.000000" stroke="none" 
	d="
M1547.000000,224.531342 
	C1546.666626,223.683136 1546.064331,222.371048 1546.040894,221.048660 
	C1545.738647,204.011566 1542.909912,187.269516 1537.754150,171.179138 
	C1532.912476,156.069016 1526.897339,141.233063 1520.148804,126.863304 
	C1512.770630,111.152695 1502.595703,97.060287 1491.335327,83.776009 
	C1473.906738,63.215115 1453.741821,45.796692 1430.485229,32.325314 
	C1407.505005,19.013941 1382.944946,9.355310 1356.552856,5.023940 
	C1348.844727,3.758915 1341.076172,2.862505 1333.167725,1.398571 
	C1404.262085,1.000000 1475.524048,1.000000 1547.000000,1.000000 
	C1547.000000,75.354088 1547.000000,149.708389 1547.000000,224.531342 
z"/>
<path fill="#FFFFFF" opacity="1.000000" stroke="none" 
	d="
M214.531342,0.999999 
	C210.934052,1.665909 206.884430,2.461383 202.799423,2.976037 
	C181.368011,5.676106 160.940994,11.833600 141.136444,20.356003 
	C124.275780,27.611584 108.678505,36.993740 94.133675,48.072479 
	C87.104118,53.426872 80.700813,59.607906 74.057739,65.464325 
	C60.379593,77.522758 49.024113,91.623405 39.107651,106.798759 
	C25.452122,127.696083 15.220757,150.271637 9.108895,174.514481 
	C6.465996,184.997589 4.834045,195.750061 3.072433,206.434509 
	C2.246915,211.441406 2.202569,216.577103 1.402097,221.827209 
	C1.000000,148.407471 1.000000,74.814941 1.000000,1.000000 
	C72.020737,1.000000 143.041718,1.000000 214.531342,0.999999 
z"/>
<path fill="#FCB040" opacity="1.000000" stroke="none" 
	d="
M928.955994,1198.923340 
	C898.462097,1198.987915 867.968018,1199.100830 837.474731,1198.997437 
	C835.646118,1198.991211 833.474365,1197.624023 832.052185,1196.270508 
	C818.314209,1183.194580 804.593079,1170.097168 791.085938,1156.783813 
	C777.597717,1143.489136 763.846008,1130.406250 751.134033,1116.392212 
	C732.538757,1095.892090 715.477478,1074.105835 699.908264,1051.162354 
	C675.077026,1014.569763 654.346130,975.781555 638.423523,934.574341 
	C627.247131,905.650146 618.299561,875.959595 613.087830,845.273621 
	C612.021606,838.995789 610.769531,832.749512 609.580322,826.366394 
	C597.672058,825.244263 585.647644,824.572815 573.771240,822.869141 
	C560.488770,820.963806 547.163391,818.819946 534.176331,815.521423 
	C515.848633,810.866394 497.777954,805.174561 479.689514,799.625671 
	C476.552795,798.663452 474.929169,799.226257 472.968384,801.585938 
	C456.536865,821.359619 436.861267,837.258606 414.519409,849.880432 
	C382.727417,867.841187 348.356934,878.006836 312.380493,882.990784 
	C297.457855,885.058167 282.447174,886.585266 267.434662,887.867981 
	C260.179657,888.487854 252.827835,887.975037 244.464325,887.975037 
	C243.673721,865.234253 242.882736,842.482666 242.080765,819.415161 
	C248.212158,819.014099 254.269135,818.533142 260.335114,818.235168 
	C293.010101,816.630188 325.249786,812.569519 356.087677,800.912292 
	C373.822083,794.208374 390.127716,784.976624 404.481934,772.476746 
	C405.826660,771.305725 407.092285,770.043823 408.588837,768.642273 
	C319.137421,719.721802 246.162994,653.393250 188.407150,569.476135 
	C207.867767,556.494690 226.942703,543.770447 246.079468,531.005005 
	C253.829086,541.443237 261.164124,551.909241 269.091461,561.905396 
	C319.581207,625.571777 380.285583,676.885986 453.157623,713.362183 
	C482.084381,727.841492 512.260986,739.189819 543.701904,746.628296 
	C560.360718,750.569519 577.520325,752.483948 594.513855,754.888672 
	C605.684875,756.469482 605.619873,756.126099 606.010620,745.161072 
	C607.653381,699.055542 617.919678,654.912354 636.113098,612.539429 
	C650.535400,578.949402 669.542847,548.171265 692.027222,519.419373 
	C708.487610,498.370850 726.481201,478.745331 745.608643,460.126465 
	C745.703247,460.034454 745.924927,460.072906 746.442932,460.001068 
	C760.864685,473.007355 775.458252,486.168579 790.487366,499.722565 
	C785.879333,505.792847 781.019836,511.560181 776.855652,517.792114 
	C760.485474,542.290405 743.880798,566.651245 728.257874,591.622803 
	C717.483521,608.844543 707.452942,626.628418 698.480713,644.845947 
	C692.710449,656.562256 688.707214,669.317139 685.291687,681.978760 
	C681.680969,695.364075 678.883179,709.092957 677.245667,722.852051 
	C675.549988,737.100525 675.380432,751.558960 675.061890,765.937012 
	C674.413391,795.201355 678.870850,823.877014 685.602051,852.276489 
	C691.991333,879.233276 701.063416,905.259583 712.141235,930.616638 
	C712.316162,931.016968 712.617798,931.361877 713.189758,932.236450 
	C713.656006,930.611023 713.984436,929.466187 714.692444,926.997986 
	C725.239746,926.997986 736.178589,927.373840 747.080261,926.898376 
	C759.421936,926.360046 771.736938,925.134888 784.051147,924.064758 
	C794.685425,923.140686 805.346252,922.337891 815.915222,920.894653 
	C828.285767,919.205383 840.677185,917.375549 852.867615,914.724182 
	C875.189270,909.869080 897.642639,905.297913 919.538635,898.890930 
	C945.296387,891.353882 970.946350,883.059082 995.854797,873.117859 
	C1020.774292,863.172058 1045.021606,851.383118 1068.986328,839.261230 
	C1084.480225,831.424072 1098.940918,821.543091 1113.843018,812.542053 
	C1114.524414,812.130493 1114.991577,811.364441 1115.541382,810.781677 
	C1102.361206,800.353271 1088.967773,790.307617 1076.213379,779.507202 
	C1063.822876,769.015015 1051.737427,758.105652 1040.151733,746.734070 
	C1024.757690,731.624695 1009.352234,716.442810 995.076904,700.297241 
	C972.226196,674.453003 951.112183,647.214233 936.794495,615.452148 
	C933.025024,607.089905 929.985779,598.398499 926.461121,589.478394 
	C949.456482,583.688354 971.821838,578.056946 994.330200,572.389526 
	C1002.819397,598.232117 1018.393860,618.913330 1034.698486,639.221985 
	C1052.196533,661.017151 1071.692871,680.955139 1091.886353,700.136902 
	C1116.120728,723.157288 1141.860840,744.490845 1169.303955,763.673096 
	C1170.095093,764.226196 1171.049072,764.546448 1172.821899,765.412292 
	C1181.746704,755.603088 1191.251587,745.932861 1199.855835,735.518494 
	C1212.973022,719.641785 1223.972900,702.278992 1232.604248,683.551758 
	C1240.251343,666.960205 1246.536865,649.866882 1248.999634,631.609863 
	C1249.419312,628.499084 1250.907715,627.535950 1254.060425,628.037292 
	C1266.965942,630.088989 1279.901123,631.954834 1292.829224,633.862793 
	C1300.124634,634.939453 1307.432007,635.936646 1314.725342,637.026611 
	C1317.950928,637.508606 1318.523071,639.751099 1318.021729,642.502441 
	C1314.041260,664.341675 1308.018433,685.553833 1299.106934,705.944397 
	C1287.447632,732.622314 1272.080566,757.019104 1253.821045,779.578125 
	C1238.148804,798.940674 1220.598511,816.565125 1201.691650,832.774719 
	C1174.507568,856.080505 1144.932739,876.011963 1114.019775,894.001587 
	C1112.064941,895.139221 1110.034180,896.146667 1107.003784,897.768555 
	C1112.416748,900.799377 1116.939819,903.513306 1121.619995,905.922424 
	C1146.815063,918.891296 1172.787598,929.945190 1200.529663,936.186523 
	C1211.501343,938.654907 1222.671509,940.400513 1233.835938,941.799377 
	C1241.518555,942.761963 1249.411865,943.343384 1257.095215,942.703430 
	C1269.532593,941.667664 1281.900879,939.649780 1294.235840,937.659058 
	C1296.789429,937.246948 1298.252197,936.852295 1299.075928,939.743347 
	C1305.026367,960.627258 1311.037231,981.493896 1317.010010,1002.371521 
	C1317.092163,1002.658630 1316.926270,1003.016785 1316.705444,1004.449219 
	C1304.942505,1006.547729 1292.896362,1009.594238 1280.678223,1010.648743 
	C1265.489868,1011.959412 1250.141846,1012.230591 1234.895996,1011.793091 
	C1224.103638,1011.483521 1213.282227,1009.717712 1202.620605,1007.789673 
	C1175.948242,1002.966370 1150.140259,994.988342 1125.160156,984.541077 
	C1095.395386,972.092773 1067.048462,956.891602 1040.863281,937.993469 
	C1035.272461,933.958618 1031.003784,934.114502 1024.946045,936.347595 
	C999.287537,945.806274 973.733398,955.783569 947.515259,963.423401 
	C920.662354,971.248169 893.195251,977.128296 865.776733,982.793030 
	C846.474304,986.780945 826.853271,989.380615 807.280029,991.851318 
	C793.527100,993.587341 779.615540,994.068970 765.773987,995.099792 
	C759.835327,995.542053 753.894714,995.956604 747.131104,996.442993 
	C752.581604,1004.608215 757.514648,1012.986084 763.409058,1020.621765 
	C775.475281,1036.252563 787.339783,1052.138062 800.605164,1066.719604 
	C818.057678,1085.903687 836.629761,1104.083252 855.008911,1122.405518 
	C866.879395,1134.239258 879.572205,1145.253418 891.337952,1157.185669 
	C903.431824,1169.450684 914.856262,1182.376465 926.540039,1195.043945 
	C927.423706,1196.002075 928.039429,1197.207153 928.892456,1198.640869 
	C929.005188,1198.984253 928.955994,1198.923340 928.955994,1198.923340 
z"/>
<path fill="#FEFEFE" opacity="1.000000" stroke="none" 
	d="
M1324.151611,607.388428 
	C1323.256470,613.877747 1322.412598,619.927490 1321.483521,626.588440 
	C1298.488770,623.270325 1275.856812,620.004639 1252.388306,616.618225 
	C1255.678589,593.767761 1258.953857,571.022827 1262.338745,547.515198 
	C1285.296997,550.831543 1308.041016,554.116882 1331.486938,557.503601 
	C1329.027710,574.196533 1326.615234,590.572693 1324.151611,607.388428 
z"/>
<path fill="#FEFEFE" opacity="1.000000" stroke="none" 
	d="
M983.437439,529.468628 
	C985.934387,540.715942 988.298706,551.561035 990.795837,563.015686 
	C968.052307,567.998169 945.462830,572.946899 922.591125,577.957458 
	C917.593018,555.093262 912.680725,532.621582 907.678040,509.736572 
	C930.588440,504.721222 953.046082,499.805023 975.911316,494.799591 
	C978.420898,506.430878 980.862793,517.748657 983.437439,529.468628 
z"/>
<path fill="#FEFEFE" opacity="1.000000" stroke="none" 
	d="
M1388.066040,984.014282 
	C1367.728516,989.730713 1347.791016,995.378784 1327.114990,1001.236145 
	C1320.814941,978.974304 1314.529175,956.763123 1308.089722,934.008911 
	C1330.477661,927.683411 1352.729492,921.396301 1375.323730,915.012512 
	C1381.662842,937.453308 1387.908325,959.562439 1394.262451,982.055786 
	C1392.138916,982.748230 1390.302612,983.347107 1388.066040,984.014282 
z"/>
<path fill="#FDFDFD" opacity="1.000000" stroke="none" 
	d="
M188.000046,888.004944 
	C180.344345,888.004944 173.188644,888.004944 165.654358,888.004944 
	C165.654358,865.138855 165.654358,842.465576 165.654358,819.532593 
	C188.372833,819.532593 210.934357,819.532593 233.750702,819.532593 
	C233.750702,842.279297 233.750702,864.851868 233.750702,888.004944 
	C218.676773,888.004944 203.588394,888.004944 188.000046,888.004944 
z"/>
<path fill="#FEFEFE" opacity="1.000000" stroke="none" 
	d="
M202.321976,470.037415 
	C205.344009,467.179321 206.466385,469.438843 207.728394,471.424835 
	C218.776154,488.810577 229.835983,506.188629 241.227951,524.096741 
	C222.673965,535.932800 204.132919,547.760620 185.186462,559.847046 
	C173.258545,541.148254 161.494339,522.706116 149.431137,503.795258 
	C167.109146,492.505219 184.547974,481.367950 202.321976,470.037415 
z"/>
<path fill="#FEFEFE" opacity="1.000000" stroke="none" 
	d="
M812.859436,471.864838 
	C807.791870,477.386841 802.973572,482.656189 797.851868,488.257385 
	C782.979858,474.693054 768.303406,461.307037 753.294128,447.617462 
	C766.886475,432.717072 780.276978,418.037994 793.954407,403.044342 
	C808.798950,416.577820 823.390198,429.880402 838.506470,443.661591 
	C829.975708,453.049835 821.542175,462.331024 812.859436,471.864838 
z"/>
<path fill="#FEFEFE" opacity="1.000000" stroke="none" 
	d="
M1398.913330,869.946350 
	C1409.680298,866.945312 1420.045776,864.007385 1430.838013,860.948486 
	C1435.432373,877.222839 1440.007812,893.430359 1444.762329,910.272522 
	C1428.188721,914.967285 1412.013062,919.549255 1395.447388,924.241760 
	C1390.809814,907.812622 1386.238525,891.618530 1381.544312,874.989014 
	C1387.465820,873.251221 1392.988770,871.630371 1398.913330,869.946350 
z"/>
<path fill="#FDFDFD" opacity="1.000000" stroke="none" 
	d="
M160.767181,430.306213 
	C159.725800,428.593140 158.865677,427.191467 157.874344,425.575989 
	C171.204193,417.070862 184.352631,408.681458 197.982681,399.984802 
	C206.456329,413.261230 214.910339,426.506927 223.638397,440.181976 
	C210.248993,448.730560 197.144012,457.097565 183.460403,465.833984 
	C175.884186,453.982178 168.416321,442.299896 160.767181,430.306213 
z"/>
<path fill="#FDFDFD" opacity="1.000000" stroke="none" 
	d="
M122.000443,832.104004 
	C115.529137,832.104004 109.557739,832.104004 103.292175,832.104004 
	C103.292175,816.174561 103.292175,800.472046 103.292175,784.526733 
	C119.147270,784.526733 134.863052,784.526733 150.791183,784.526733 
	C150.791183,800.353760 150.791183,815.932495 150.791183,832.104004 
	C141.332077,832.104004 131.916214,832.104004 122.000443,832.104004 
z"/>
<path fill="#FEFDFD" opacity="1.000000" stroke="none" 
	d="
M968.686279,480.638855 
	C963.756348,481.718384 959.219299,482.648529 954.198059,483.677917 
	C950.972778,468.931885 947.768616,454.282288 944.502502,439.349792 
	C959.396484,436.086365 973.768555,432.937286 988.866760,429.629120 
	C992.103455,444.356506 995.310425,458.948792 998.626038,474.035248 
	C988.443665,476.259491 978.761353,478.374512 968.686279,480.638855 
z"/>
<path fill="#FEFEFE" opacity="1.000000" stroke="none" 
	d="
M838.203064,388.206421 
	C832.271545,394.699646 826.551147,400.907990 820.765686,407.186890 
	C810.338867,397.669128 800.171021,388.387787 789.611511,378.748840 
	C799.080811,368.354523 808.397888,358.127380 818.060730,347.520599 
	C828.511902,357.047058 838.740417,366.370514 849.277710,375.975464 
	C845.510742,380.117798 841.962463,384.019653 838.203064,388.206421 
z"/>
<path fill="#FDFDFD" opacity="1.000000" stroke="none" 
	d="
M1287.514893,488.627930 
	C1289.413696,488.889709 1290.889404,489.045105 1293.289429,489.297821 
	C1291.293701,503.230530 1289.320557,517.005493 1287.316406,530.996826 
	C1273.228027,528.933472 1259.679565,526.949219 1245.747681,524.908752 
	C1247.776855,510.957123 1249.747803,497.405853 1251.783936,483.406281 
	C1263.855103,485.155090 1275.473511,486.838318 1287.514893,488.627930 
z"/>
<path fill="#4B3C30" opacity="1.000000" stroke="none" 
	d="
M928.968872,1198.970703 
	C929.041077,1199.004639 929.149597,1199.052002 929.258179,1199.099365 
	C929.176270,1199.133545 929.094360,1199.167603 928.984253,1199.062500 
	C928.955994,1198.923340 929.005188,1198.984253 928.968872,1198.970703 
z"/>
</svg>